<svg width="20" height="20" viewBox="0 0 20 20" fill="none" xmlns="http://www.w3.org/2000/svg">
<path d="M13.75 10C13.75 10.8984 13.6719 11.7188 13.5938 12.5H6.36719C6.28906 11.7188 6.21094 10.8984 6.21094 10C6.21094 9.14062 6.28906 8.32031 6.36719 7.5H13.5938C13.6719 8.32031 13.75 9.14062 13.75 10ZM19.6484 7.5C19.8828 8.32031 20 9.14062 20 10C20 10.8984 19.8828 11.7188 19.6484 12.5H14.8438C14.9219 11.7188 15 10.8594 15 10C15 9.14062 14.9219 8.32031 14.8438 7.5H19.6484ZM19.2578 6.25H14.6875C14.2969 3.78906 13.5156 1.67969 12.5391 0.351562C15.5859 1.17188 18.0859 3.35938 19.2578 6.25ZM13.4375 6.25H6.52344C6.75781 4.84375 7.14844 3.59375 7.57812 2.57812C8.00781 1.64062 8.4375 0.976562 8.90625 0.546875C9.33594 0.15625 9.6875 0 10 0C10.2734 0 10.625 0.15625 11.0547 0.546875C11.5234 0.976562 11.9531 1.64062 12.3828 2.57812C12.8125 3.59375 13.2031 4.84375 13.4375 6.25ZM0.703125 6.25C1.875 3.35938 4.375 1.17188 7.42188 0.351562C6.44531 1.67969 5.66406 3.78906 5.27344 6.25H0.703125ZM5.11719 7.5C5.03906 8.32031 4.96094 9.14062 4.96094 10C4.96094 10.8594 5.03906 11.7188 5.11719 12.5H0.3125C0.078125 11.7188 0 10.8984 0 10C0 9.14062 0.078125 8.32031 0.3125 7.5H5.11719ZM7.57812 17.4609C7.14844 16.4453 6.75781 15.1953 6.52344 13.75H13.4375C13.2031 15.1953 12.8125 16.4453 12.3828 17.4609C11.9531 18.3984 11.5234 19.0625 11.0547 19.4922C10.625 19.8828 10.2734 20 9.96094 20C9.6875 20 9.33594 19.8828 8.90625 19.4922C8.4375 19.0625 8.00781 18.3984 7.57812 17.4609ZM7.42188 19.6875C4.375 18.8672 1.875 16.6797 0.703125 13.75H5.27344C5.66406 16.25 6.44531 18.3594 7.42188 19.6875ZM12.5391 19.6875C13.5156 18.3594 14.2969 16.25 14.6875 13.75H19.2578C18.0859 16.6797 15.5859 18.8672 12.5391 19.6875Z" fill="#1C2142"/>
</svg>
